<?xml version="1.0" encoding="UTF-8"?>
<svg xmlns="http://www.w3.org/2000/svg" xmlns:xlink="http://www.w3.org/1999/xlink" width="18pt" height="18pt" viewBox="0 0 18 18" version="1.1">
<g id="surface1">
<path style=" stroke:none;fill-rule:nonzero;fill:rgb(0%,0%,0%);fill-opacity:1;" d="M 10.464844 0.691406 C 10.371094 0.707031 10.242188 0.757812 10.164062 0.816406 C 10.109375 0.855469 9.933594 1.042969 9.933594 1.066406 C 9.933594 1.070312 9.925781 1.089844 9.910156 1.109375 C 9.835938 1.222656 9.8125 1.484375 9.863281 1.652344 C 9.878906 1.699219 9.890625 1.742188 9.894531 1.75 C 9.902344 1.789062 10.011719 1.941406 10.078125 2.003906 C 10.117188 2.042969 10.261719 2.167969 10.398438 2.285156 C 10.53125 2.402344 10.644531 2.5 10.644531 2.503906 C 10.644531 2.515625 8.140625 5.390625 8.0625 5.46875 C 7.933594 5.59375 7.621094 5.820312 7.589844 5.8125 C 7.585938 5.808594 7.578125 5.816406 7.578125 5.820312 C 7.578125 5.828125 7.574219 5.835938 7.570312 5.832031 C 7.5625 5.832031 7.496094 5.859375 7.421875 5.894531 C 7.34375 5.933594 7.273438 5.960938 7.261719 5.960938 C 7.25 5.960938 7.226562 5.96875 7.210938 5.976562 C 7.195312 5.988281 7.171875 5.996094 7.160156 5.996094 C 7.148438 6 7.082031 6.015625 7.015625 6.03125 C 6.949219 6.046875 6.859375 6.066406 6.820312 6.070312 C 6.675781 6.09375 6.164062 6.082031 6.121094 6.058594 C 6.117188 6.050781 6.085938 6.046875 6.054688 6.042969 C 6.023438 6.035156 5.980469 6.027344 5.957031 6.019531 C 5.933594 6.011719 5.898438 6.003906 5.878906 6 C 5.828125 5.992188 5.660156 5.925781 5.554688 5.875 C 5.503906 5.851562 5.464844 5.832031 5.460938 5.835938 C 5.460938 5.839844 5.449219 5.832031 5.433594 5.820312 C 5.410156 5.800781 5.363281 5.773438 5.324219 5.753906 C 5.304688 5.746094 5.285156 5.730469 5.273438 5.71875 C 5.265625 5.707031 5.25 5.695312 5.242188 5.695312 C 5.234375 5.695312 5.191406 5.664062 5.148438 5.625 C 5.105469 5.589844 5.058594 5.554688 5.046875 5.550781 C 5.03125 5.550781 4.863281 5.730469 4.527344 6.117188 L 4.03125 6.6875 L 4.066406 6.714844 C 4.976562 7.5 7.410156 9.625 7.40625 9.632812 C 7.40625 9.640625 6.640625 10.527344 5.703125 11.601562 C 4.765625 12.679688 3.992188 13.574219 3.984375 13.589844 C 3.976562 13.605469 3.96875 13.621094 3.972656 13.625 C 3.976562 13.632812 3.988281 13.765625 4 14.007812 C 4.003906 14.074219 4.011719 14.152344 4.015625 14.1875 C 4.019531 14.222656 4.023438 14.316406 4.03125 14.394531 C 4.035156 14.46875 4.042969 14.550781 4.042969 14.570312 C 4.046875 14.589844 4.046875 14.617188 4.046875 14.632812 C 4.050781 14.667969 4.042969 14.667969 4.308594 14.644531 C 4.527344 14.628906 4.804688 14.609375 5.09375 14.589844 C 5.109375 14.589844 5.84375 13.757812 6.835938 12.613281 C 7.78125 11.527344 8.558594 10.636719 8.5625 10.632812 C 8.566406 10.632812 9.335938 11.296875 10.269531 12.109375 C 11.203125 12.917969 11.972656 13.585938 11.980469 13.585938 C 11.988281 13.585938 12.199219 13.34375 12.453125 13.054688 C 12.707031 12.761719 12.929688 12.503906 12.949219 12.484375 L 12.984375 12.445312 L 12.886719 12.351562 C 12.785156 12.253906 12.652344 12.101562 12.644531 12.078125 C 12.640625 12.070312 12.625 12.046875 12.605469 12.027344 C 12.585938 12.007812 12.570312 11.984375 12.570312 11.972656 C 12.570312 11.960938 12.566406 11.953125 12.558594 11.953125 C 12.550781 11.953125 12.542969 11.949219 12.542969 11.9375 C 12.542969 11.933594 12.515625 11.878906 12.480469 11.820312 C 12.449219 11.761719 12.421875 11.710938 12.429688 11.707031 C 12.433594 11.703125 12.429688 11.699219 12.421875 11.699219 C 12.414062 11.699219 12.40625 11.691406 12.40625 11.683594 C 12.40625 11.671875 12.382812 11.613281 12.355469 11.546875 C 12.328125 11.484375 12.308594 11.433594 12.3125 11.433594 C 12.316406 11.433594 12.3125 11.414062 12.304688 11.394531 C 12.285156 11.34375 12.28125 11.335938 12.242188 11.128906 C 12.214844 10.984375 12.210938 10.929688 12.214844 10.714844 C 12.214844 10.582031 12.21875 10.453125 12.226562 10.433594 C 12.230469 10.417969 12.238281 10.375 12.242188 10.34375 C 12.246094 10.3125 12.253906 10.277344 12.257812 10.261719 C 12.261719 10.25 12.265625 10.226562 12.269531 10.207031 C 12.28125 10.152344 12.285156 10.148438 12.316406 10.046875 C 12.335938 9.992188 12.359375 9.929688 12.367188 9.90625 C 12.398438 9.839844 12.421875 9.78125 12.421875 9.769531 C 12.425781 9.765625 12.433594 9.753906 12.441406 9.742188 C 12.449219 9.734375 12.460938 9.71875 12.460938 9.710938 C 12.460938 9.703125 12.480469 9.664062 12.507812 9.621094 C 12.535156 9.578125 12.558594 9.542969 12.558594 9.539062 C 12.558594 9.511719 12.820312 9.207031 13.921875 7.941406 C 14.621094 7.132812 15.195312 6.472656 15.199219 6.472656 C 15.203125 6.46875 15.34375 6.585938 15.503906 6.726562 C 15.765625 6.949219 15.945312 7.089844 15.945312 7.066406 C 15.945312 7.058594 15.957031 7.0625 15.96875 7.074219 C 15.980469 7.082031 15.988281 7.085938 15.988281 7.082031 C 15.988281 7.074219 15.996094 7.078125 16.007812 7.085938 C 16.0625 7.128906 16.429688 7.136719 16.5 7.09375 C 16.503906 7.089844 16.523438 7.082031 16.535156 7.082031 C 16.59375 7.070312 16.746094 6.957031 16.820312 6.875 C 16.96875 6.707031 17.019531 6.570312 17.019531 6.363281 C 17.019531 6.222656 16.996094 6.132812 16.941406 6.023438 C 16.886719 5.921875 16.875 5.910156 16.789062 5.820312 C 16.703125 5.730469 11.070312 0.832031 11.019531 0.808594 C 10.988281 0.789062 10.921875 0.753906 10.914062 0.753906 C 10.910156 0.753906 10.894531 0.742188 10.875 0.734375 C 10.859375 0.726562 10.832031 0.714844 10.8125 0.710938 C 10.792969 0.707031 10.769531 0.703125 10.757812 0.699219 C 10.722656 0.683594 10.542969 0.679688 10.464844 0.691406 Z M 12.914062 4.472656 C 13.519531 4.996094 14.019531 5.4375 14.027344 5.445312 C 14.035156 5.460938 13.6875 5.867188 12.769531 6.925781 C 12.074219 7.726562 11.488281 8.40625 11.46875 8.4375 C 11.449219 8.46875 11.425781 8.496094 11.417969 8.5 C 11.402344 8.511719 11.230469 8.769531 11.199219 8.832031 C 11.191406 8.84375 11.160156 8.894531 11.128906 8.949219 C 11.078125 9.035156 11.054688 9.089844 11.046875 9.113281 C 11.046875 9.117188 11.027344 9.15625 11.003906 9.203125 C 10.960938 9.300781 10.9375 9.359375 10.917969 9.40625 C 10.917969 9.410156 10.910156 9.433594 10.898438 9.457031 C 10.890625 9.480469 10.878906 9.503906 10.878906 9.511719 C 10.875 9.519531 10.859375 9.582031 10.835938 9.652344 C 10.8125 9.722656 10.796875 9.78125 10.796875 9.785156 C 10.796875 9.785156 10.789062 9.816406 10.777344 9.855469 C 10.769531 9.890625 10.753906 9.945312 10.75 9.976562 C 10.746094 10.007812 10.738281 10.046875 10.734375 10.0625 C 10.722656 10.125 10.703125 10.265625 10.691406 10.351562 C 10.6875 10.402344 10.683594 10.441406 10.683594 10.445312 C 10.671875 10.453125 7.34375 7.546875 7.347656 7.539062 C 7.351562 7.53125 7.378906 7.523438 7.40625 7.519531 C 7.4375 7.511719 7.523438 7.488281 7.601562 7.464844 C 7.679688 7.4375 7.746094 7.421875 7.753906 7.421875 C 7.757812 7.421875 7.761719 7.417969 7.761719 7.414062 C 7.761719 7.40625 7.773438 7.402344 7.789062 7.402344 C 7.804688 7.398438 7.855469 7.382812 7.898438 7.363281 C 7.945312 7.339844 7.992188 7.324219 8.003906 7.320312 C 8.019531 7.316406 8.058594 7.296875 8.09375 7.277344 C 8.125 7.257812 8.15625 7.246094 8.160156 7.253906 C 8.167969 7.257812 8.171875 7.253906 8.171875 7.242188 C 8.171875 7.230469 8.175781 7.226562 8.179688 7.230469 C 8.183594 7.238281 8.234375 7.210938 8.292969 7.179688 C 8.347656 7.144531 8.398438 7.117188 8.402344 7.121094 C 8.421875 7.132812 8.875 6.800781 9.003906 6.679688 C 9.222656 6.476562 9.386719 6.296875 10.550781 4.953125 C 11.238281 4.164062 11.804688 3.515625 11.808594 3.515625 C 11.808594 3.515625 12.308594 3.945312 12.914062 4.472656 Z M 12.914062 4.472656 "/>
</g>
</svg>
