<?xml version="1.0" encoding="UTF-8" standalone="no"?>
<svg
   xmlns:dc="http://purl.org/dc/elements/1.1/"
   xmlns:cc="http://creativecommons.org/ns#"
   xmlns:rdf="http://www.w3.org/1999/02/22-rdf-syntax-ns#"
   xmlns:svg="http://www.w3.org/2000/svg"
   xmlns="http://www.w3.org/2000/svg"
   xmlns:sodipodi="http://sodipodi.sourceforge.net/DTD/sodipodi-0.dtd"
   xmlns:inkscape="http://www.inkscape.org/namespaces/inkscape"
   width="300"
   height="141"
   viewBox="0 0 1000 465"
   version="1.0"
   id="svg2"
   sodipodi:version="0.32"
   inkscape:version="0.46"
   sodipodi:docname="2000px-TCS_Logo.svg"
   inkscape:output_extension="org.inkscape.output.svg.inkscape">
  <metadata
     id="metadata68">
    <rdf:RDF>
      <cc:Work
         rdf:about="">
        <dc:format>image/svg+xml</dc:format>
        <dc:type
           rdf:resource="http://purl.org/dc/dcmitype/StillImage" />
      </cc:Work>
    </rdf:RDF>
  </metadata>
  <defs
     id="defs66">
    <inkscape:perspective
       sodipodi:type="inkscape:persp3d"
       inkscape:vp_x="0 : 290.625 : 1"
       inkscape:vp_y="0 : 1000 : 0"
       inkscape:vp_z="1250 : 290.625 : 1"
       inkscape:persp3d-origin="625 : 193.75 : 1"
       id="perspective70" />
  </defs>
  <sodipodi:namedview
     inkscape:window-height="669"
     inkscape:window-width="640"
     inkscape:pageshadow="2"
     inkscape:pageopacity="0.0"
     guidetolerance="10.0"
     gridtolerance="10.0"
     objecttolerance="10.0"
     borderopacity="1.0"
     bordercolor="#666666"
     pagecolor="#ffffff"
     id="base"
     showgrid="false"
     inkscape:zoom="0.4352"
     inkscape:cx="625"
     inkscape:cy="290.625"
     inkscape:window-x="92"
     inkscape:window-y="92"
     inkscape:current-layer="svg2" />
  <g
     id="#5f68c3ff">
    <path
       d="M 414.5,17.71 C 436.03,7.82 459.49,2.58 483.04,0.68 C 494.02,0.64 505,0.83 515.98,0.59 C 551.57,3.3 587.48,13.89 615.99,35.97 C 627.03,45.06 637.4,55.62 643.76,68.58 C 602.38,59.54 560.32,52.76 517.92,51.51 C 513.05,51.18 507.05,54.49 507.16,59.91 C 507.29,107.63 507.16,155.34 507.18,203.06 C 502.43,203.26 497.69,203.16 492.94,203.25 C 492.93,155.14 492.99,107.03 493.16,58.93 C 492.58,53.86 486.78,50.98 482.09,51.53 C 439.62,52.97 397.4,59.45 356.02,68.97 C 359.96,60.74 365.56,53.43 371.99,47 C 383.92,34.4 398.77,24.88 414.5,17.71 z"
       id="path5"
       style="opacity:1;fill:#5f68c3" />
    <path
       d="M 349.86,84.76 C 385.88,77.71 422.37,72.62 459.04,70.63 C 464.68,70.26 471.27,73.36 472.86,79.15 C 474.34,87.78 472.69,96.56 471.01,105.04 C 464.63,136.06 458.24,167.07 451.9,198.1 C 426.76,192.38 402.21,182.19 382.09,165.83 C 370.78,156.4 360.74,145.07 354.51,131.62 C 347.63,117.16 345.74,100.28 349.86,84.76 z"
       id="path7"
       style="opacity:1;fill:#5f68c3" />
    <path
       d="M 535.54,71.54 C 538.85,70.12 542.51,70.69 546,70.86 C 579.89,72.89 613.52,77.86 646.91,83.85 C 648.09,84.25 650.14,84.09 650.35,85.74 C 654.39,101.7 652.01,119.02 644.54,133.62 C 636.98,148.55 625.05,160.89 611.62,170.69 C 598.4,179.92 583.85,187.28 568.54,192.37 C 562.04,194.7 555.3,196.21 548.73,198.27 C 543.58,172.09 538.05,145.98 532.7,119.84 C 530.37,106.99 526.28,94.15 527.46,80.94 C 527.64,76.38 531.52,73.02 535.54,71.54 z"
       id="path9"
       style="opacity:1;fill:#5f68c3" />
    <path
       d="M 297.49,255.4 C 330.06,254.97 362.65,255.31 395.22,255.24 C 395.26,265.05 395.38,274.86 395.15,284.67 C 385.71,284.68 376.27,284.65 366.83,284.6 C 366.67,308.5 366.78,332.4 366.76,356.3 C 353.11,356.28 339.45,356.27 325.8,356.3 C 326.24,332.33 325.87,308.36 326.03,284.39 C 316.51,284.99 306.97,284.47 297.44,284.7 C 297.62,274.94 297.54,265.17 297.49,255.4 z"
       id="path11"
       style="opacity:1;fill:#5f68c3" />
    <path
       d="M 422.94,257.09 C 423.33,254.57 426.13,255.32 427.93,255.21 C 440.79,255.37 453.66,254.94 466.51,255.37 C 479.38,288.97 492.4,322.51 505.05,356.2 C 491.82,356.42 478.6,356.09 465.37,356.44 C 458.63,336.46 451.84,316.51 444.99,296.57 C 438.37,316.49 431.65,336.38 424.69,356.17 C 411.43,356.48 398.17,356.02 384.92,356.46 C 397.58,323.33 410.21,290.19 422.94,257.09 z"
       id="path13"
       style="opacity:1;fill:#5f68c3" />
    <path
       d="M 494.95,255.24 C 527.47,255.21 560,255.2 592.52,255.24 C 592.77,264.98 592.53,274.73 592.68,284.47 C 583.17,284.85 573.66,284.54 564.15,284.67 C 564.13,308.59 564.03,332.51 564.24,356.43 C 550.62,356.09 537,356.42 523.39,356.21 C 523.5,332.36 523.44,308.52 523.44,284.67 C 513.87,284.63 504.31,284.66 494.74,284.7 C 495.09,274.88 494.81,265.06 494.95,255.24 z"
       id="path15"
       style="opacity:1;fill:#5f68c3" />
    <path
       d="M 621.1,255.2 C 635.34,255.23 649.57,255.14 663.81,255.27 C 676.77,288.88 689.77,322.49 702.38,356.23 C 689.2,356.39 676.01,356.12 662.83,356.41 C 655.97,336.68 649.46,316.82 642.47,297.14 C 635.34,316.71 629.07,336.59 622.11,356.22 C 608.8,356.46 595.49,356 582.19,356.49 C 595.25,322.76 608.02,288.92 621.1,255.2 z"
       id="path17"
       style="opacity:1;fill:#5f68c3" />
    <path
       d="M 236.64,417.67 C 244.69,412.29 255.28,412.19 264.22,415.25 C 263.92,417.84 263.24,420.36 262.37,422.82 C 255.85,420.88 248.03,419.89 242.21,424.21 C 234.35,430.25 233.95,442.84 239.4,450.6 C 244.81,457.24 254.79,457.04 262.21,454.38 C 263.05,456.85 263.67,459.38 264.19,461.94 C 258.7,464.01 252.76,463.54 247.01,463.51 C 238.52,463.37 230.55,457.48 227.68,449.53 C 223.55,438.54 226.41,424.33 236.64,417.67 z"
       id="path19"
       style="opacity:1;fill:#5f68c3" />
    <path
       d="M 284.49,413.8 C 292.36,411.94 301.34,414.18 306.77,420.36 C 312.28,426.44 313.6,435.22 312.58,443.12 C 311.62,450.87 307.24,458.64 299.88,461.89 C 295.22,463.81 289.95,465.23 284.95,463.87 C 278.49,462.55 272.49,458.43 269.54,452.45 C 264.83,442.85 265.41,430.56 271.88,421.9 C 274.91,417.76 279.51,414.93 284.49,413.8 M 285.42,421.63 C 280.63,423.3 277.85,428.2 276.98,432.96 C 275.53,439.93 276.43,448.11 281.63,453.39 C 286.75,458.37 296.24,457.07 299.78,450.82 C 304.05,443.5 304.03,433.66 299.65,426.39 C 296.93,421.5 290.5,419.86 285.42,421.63 z"
       id="path21"
       style="opacity:1;fill:#5f68c3" />
    <path
       d="M 375.96,415.06 C 382.72,412.16 390.59,412.92 397.29,415.62 C 396.51,418.25 395.75,420.88 395.06,423.54 C 390.52,421.17 384.99,420.13 380.13,422.12 C 376.82,423.51 376.24,428.72 379.23,430.77 C 384.38,434.55 391.42,435.29 395.81,440.21 C 401.42,446.08 399.65,456.66 392.93,460.92 C 388.32,464.29 382.32,463.42 376.97,463.56 C 373.39,463.75 370.02,462.41 366.88,460.86 C 367.54,458.32 368.19,455.78 368.86,453.25 C 374.41,455.59 381.07,457.56 386.82,454.8 C 391.04,452.65 390.16,445.85 386,444.15 C 380,441.13 372.43,439.46 368.95,433.11 C 365.49,426.42 369.29,417.97 375.96,415.06 z"
       id="path23"
       style="opacity:1;fill:#5f68c3" />
    <path
       d="M 619.67,417.63 C 627.75,412.23 638.27,412.29 647.26,415.2 C 646.81,417.76 646.15,420.29 645.45,422.8 C 638.9,420.91 631.06,419.85 625.22,424.19 C 619.58,428.12 618.19,435.64 618.99,442.06 C 619.61,447.46 622.89,452.86 628.14,454.83 C 633.68,456.91 639.87,456.15 645.41,454.42 C 645.98,456.95 646.58,459.48 647.16,462.01 C 641.96,463.86 636.4,463.56 630.98,463.55 C 622.61,463.8 614.44,458.47 611.17,450.78 C 606.24,439.61 609,424.5 619.67,417.63 z"
       id="path25"
       style="opacity:1;fill:#5f68c3" />
    <path
       d="M 718.86,414.57 C 725.35,412.21 732.65,413.1 738.97,415.61 C 738.18,418.26 737.39,420.9 736.68,423.57 C 732.23,421.32 726.82,420.12 722.04,421.97 C 718.5,423.46 717.73,428.81 721.01,430.99 C 727.18,435.04 736.1,435.96 739.59,443.32 C 743.64,451.46 737.72,461.76 728.97,463.22 C 722.08,463.76 714.71,464.36 708.41,460.91 C 709.16,458.32 709.9,455.73 710.67,453.15 C 715.93,455.69 722.18,457.26 727.87,455.16 C 731.57,453.74 732.4,448.14 729.51,445.54 C 726.43,442.85 722.29,442.01 718.73,440.18 C 714.48,438.18 710.41,434.71 709.56,429.86 C 708.17,423.34 712.75,416.69 718.86,414.57 z"
       id="path27"
       style="opacity:1;fill:#5f68c3" />
    <path
       d="M 896.11,419.12 C 904.3,412.29 915.94,412.16 925.75,415.05 C 925.23,417.71 924.6,420.36 923.91,422.99 C 917.73,420.87 910.43,420.03 904.62,423.6 C 896.03,428.91 895.27,441.74 900.25,449.77 C 905.41,457.38 916.14,457 923.95,454.41 C 924.46,456.88 924.99,459.36 925.49,461.85 C 919.98,464.2 913.89,463.48 908.07,463.49 C 899.13,463.34 891.16,456.53 888.58,448.14 C 885.62,438.14 887.7,425.94 896.11,419.12 z"
       id="path29"
       style="opacity:1;fill:#5f68c3" />
    <path
       d="M 976.38,415.26 C 983.14,412.09 991.23,412.86 998.01,415.61 C 997.26,418.26 996.51,420.91 995.82,423.58 C 991.33,421.26 985.88,420.16 981.03,422.02 C 977.68,423.46 976.88,428.81 980.05,430.88 C 985.5,434.62 992.79,435.49 997.14,440.87 C 999.79,443.55 999.34,447.54 999.32,450.99 C 999.55,455.53 996.22,459.36 992.55,461.57 C 988.16,464.21 982.82,463.4 977.95,463.55 C 974.31,463.72 970.84,462.52 967.68,460.86 C 968.31,458.34 968.94,455.82 969.57,453.31 C 975.06,455.5 981.39,457.33 987.16,455.12 C 991.21,453.2 991.38,446.86 987.52,444.63 C 981.69,441.2 974.06,440.04 970.16,433.92 C 966,427.37 969.69,418.44 976.38,415.26 z"
       id="path31"
       style="opacity:1;fill:#5f68c3" />
    <path
       d="M 0.2,413.53 C 16.48,413.53 32.76,413.53 49.04,413.54 C 48.93,418.44 48.92,423.34 48.96,428.25 C 44.23,428.51 39.5,428.5 34.77,428.47 C 34.72,440.45 34.75,452.44 34.78,464.43 C 27.9,463.88 21,464.24 14.12,464.14 C 14.41,452.19 14.1,440.23 14.33,428.28 C 9.56,428.5 4.78,428.49 0,428.46 L 0,426.55 C 0.15,422.21 0.17,417.87 0.2,413.53 z"
       id="path33"
       style="opacity:1;fill:#5f68c3" />
    <path
       d="M 43.56,464.05 C 50.01,447.19 56.31,430.27 63.07,413.53 C 70.12,413.61 77.17,413.42 84.22,413.66 C 90.88,430.39 97.3,447.23 103.53,464.13 C 96.91,464.19 90.29,463.93 83.69,464.46 C 80.42,454.34 76.59,444.4 73.63,434.18 C 70.49,444.16 67.08,454.06 63.58,463.93 C 56.92,464.51 50.23,464.01 43.56,464.05 z"
       id="path35"
       style="opacity:1;fill:#5f68c3" />
    <path
       d="M 98.19,413.65 C 114.5,413.45 130.81,413.55 147.12,413.61 C 147.08,418.51 147.04,423.42 147.18,428.33 C 142.45,428.48 137.71,428.47 132.98,428.51 C 132.94,440.18 133.04,451.86 132.89,463.54 C 126.11,463.5 119.34,463.52 112.57,463.54 C 112.48,451.82 112.39,440.1 112.59,428.38 C 107.79,428.5 102.99,428.44 98.19,428.52 C 98.28,423.56 98.26,418.6 98.19,413.65 z"
       id="path37"
       style="opacity:1;fill:#5f68c3" />
    <path
       d="M 142.05,463.5 C 148.21,446.79 154.69,430.2 161.06,413.57 C 168.21,413.6 175.37,413.32 182.52,413.75 C 188.88,430.33 195.4,446.85 201.51,463.53 C 194.87,463.51 188.23,463.5 181.59,463.54 C 178.3,453.97 175.14,444.35 171.68,434.84 C 168.47,444.4 165.27,453.96 162.01,463.5 C 155.36,463.5 148.7,463.5 142.05,463.5 z"
       id="path39"
       style="opacity:1;fill:#5f68c3" />
    <path
       d="M 320.04,414.14 C 323.57,413.97 327.1,413.96 330.64,414.05 C 337.6,425.92 345.32,437.38 351.1,449.9 C 350.36,437.96 350.59,425.99 350.56,414.03 C 353.4,414 356.24,413.99 359.08,414.03 C 359.69,430.41 359.07,446.83 359.42,463.22 C 356.15,463.3 352.88,463.34 349.61,463.35 C 342.57,450.42 333.81,438.36 328.22,424.69 C 329.08,437.56 328.88,450.47 328.71,463.36 C 325.82,463.34 322.92,463.34 320.03,463.37 C 320.05,446.96 320.08,430.55 320.04,414.14 z"
       id="path41"
       style="opacity:1;fill:#5f68c3" />
    <path
       d="M 406.65,414.03 C 409.73,413.99 412.82,414 415.9,414.07 C 416.32,424.37 415.82,434.69 416.2,445 C 416.42,448.78 417.56,453.03 420.95,455.19 C 424.61,457.22 429.75,456.81 432.74,453.75 C 435.51,450.54 435.78,446.07 435.85,442.03 C 435.84,432.73 435.8,423.43 435.83,414.12 C 438.96,414 442.1,413.98 445.25,414.03 C 445.34,423.68 445.35,433.32 445.3,442.97 C 445.22,449.52 443.14,456.64 437.68,460.71 C 430.72,465.38 420.94,465.6 413.96,460.85 C 408.64,457.03 406.81,450.18 406.64,443.95 C 406.5,433.98 406.63,424 406.65,414.03 z"
       id="path43"
       style="opacity:1;fill:#5f68c3" />
    <path
       d="M 454.94,414.15 C 458.08,413.99 461.23,413.97 464.38,414.02 C 464.45,427.78 464.39,441.54 464.42,455.3 C 471.06,455.3 477.71,455.27 484.35,455.34 C 484.43,457.93 484.49,460.53 484.52,463.12 C 474.65,463.55 464.78,463.18 454.91,463.37 C 454.99,446.96 454.95,430.56 454.94,414.15 z"
       id="path45"
       style="opacity:1;fill:#5f68c3" />
    <path
       d="M 478.96,414.2 C 491.46,413.83 503.97,414.01 516.47,414.04 C 516.49,416.74 516.49,419.45 516.46,422.16 C 511.73,421.98 507.01,422.05 502.29,422.01 C 502.53,435.72 502.31,449.45 502.42,463.17 C 499.19,463.31 495.96,463.38 492.73,463.41 C 493.17,449.61 492.76,435.79 493,421.99 C 488.35,422.05 483.7,422.01 479.06,422.1 C 479,419.46 478.97,416.83 478.96,414.2 z"
       id="path47"
       style="opacity:1;fill:#5f68c3" />
    <path
       d="M 528.46,414.3 C 532.4,413.77 536.37,413.93 540.32,414.2 C 545.51,430.61 551.01,446.91 556.18,463.33 C 552.8,463.33 549.43,463.33 546.06,463.33 C 544.61,458.69 543.17,454.05 541.74,449.4 C 536.69,449.61 531.63,449.57 526.58,449.52 C 525.19,454.07 523.81,458.63 522.51,463.21 C 519.16,463.28 515.8,463.36 512.45,463.42 C 518.04,447.13 523,430.63 528.46,414.3 M 528.32,442.3 C 532.2,442.26 536.09,442.26 539.99,442.26 C 538,435.63 535.78,429.07 533.99,422.38 C 532.35,429.09 530.18,435.65 528.32,442.3 z"
       id="path49"
       style="opacity:1;fill:#5f68c3" />
    <path
       d="M 562.47,414.15 C 565.92,414.06 569.41,413.74 572.86,414.22 C 580.29,425.98 587.9,437.78 593.65,450.51 C 592.56,438.37 592.93,426.19 592.97,414.03 C 595.81,414 598.65,414.01 601.49,414.07 C 601.92,430.42 601.57,446.79 601.71,463.15 C 598.49,463.32 595.28,463.38 592.07,463.38 C 584.89,450.9 576.98,438.81 570.76,425.8 C 571.28,438.32 571.3,450.86 571.2,463.39 C 568.28,463.34 565.36,463.33 562.45,463.36 C 562.48,446.96 562.47,430.56 562.47,414.15 z"
       id="path51"
       style="opacity:1;fill:#5f68c3" />
    <path
       d="M 649.79,414.07 C 653.21,413.95 656.64,413.94 660.06,414.11 C 663.86,421.07 666.91,428.4 670.17,435.62 C 673.7,428.54 676.73,421.22 680.37,414.19 C 683.79,413.91 687.23,413.94 690.67,414.09 C 686.04,423.15 680.54,431.72 675.71,440.66 C 674.5,442.54 674.72,444.84 674.65,446.98 C 674.61,452.45 674.72,457.93 674.61,463.41 C 671.33,463.33 668.05,463.31 664.79,463.42 C 665.1,456.42 665.44,449.29 664.7,442.33 C 660.06,432.74 654.4,423.68 649.79,414.07 z"
       id="path53"
       style="opacity:1;fill:#5f68c3" />
    <path
       d="M 748.36,414.04 C 757.89,414.03 767.42,413.91 776.95,414.08 C 777.19,416.76 777.28,419.45 777.35,422.15 C 770.81,421.63 764.24,422 757.69,421.87 C 757.77,425.86 757.77,429.86 757.76,433.86 C 763.87,433.85 769.98,433.89 776.1,433.9 C 776.15,436.58 776.17,439.26 776.16,441.94 C 770,441.5 763.84,441.79 757.68,441.68 C 757.79,446.24 757.77,450.8 757.73,455.36 C 764.52,455.59 771.31,455.5 778.11,455.46 C 778.28,458.01 778.36,460.57 778.39,463.14 C 768.32,463.56 758.24,463.16 748.17,463.4 C 748.48,446.95 748.2,430.5 748.36,414.04 z"
       id="path55"
       style="opacity:1;fill:#5f68c3" />
    <path
       d="M 785.58,414.77 C 791.62,413.59 797.83,413.53 803.96,413.83 C 809.72,414.14 816.18,416.86 818.15,422.74 C 820.85,429.45 817.01,437.65 810.16,439.92 C 812.76,441.22 814.82,443.44 815.81,446.2 C 817.94,451.76 818.51,457.8 820.86,463.31 C 817.57,463.32 814.3,463.34 811.03,463.34 C 808.93,458.01 808.46,452.17 806.15,446.94 C 804.19,442.57 798.72,443.48 794.85,443.15 C 795.12,449.83 794.9,456.53 795.09,463.22 C 791.83,463.27 788.57,463.35 785.32,463.46 C 785.94,447.24 785.42,431 785.58,414.77 M 794.85,421.06 C 795.07,426.08 794.97,431.11 795.03,436.14 C 798.86,436.05 803.14,436.76 806.53,434.5 C 810.77,431.71 810.54,424.29 805.96,421.97 C 802.46,420.46 798.54,420.93 794.85,421.06 z"
       id="path57"
       style="opacity:1;fill:#5f68c3" />
    <path
       d="M 822.48,414.04 C 825.91,413.99 829.34,413.99 832.78,414.05 C 836.52,427.13 840.84,440.04 844.13,453.25 C 847.43,439.99 851.83,427.02 856.2,414.08 C 859.43,413.95 862.67,413.96 865.91,414.06 C 860.59,430.53 854.57,446.77 849.16,463.22 C 845.48,463.32 841.8,463.36 838.12,463.39 C 833.49,446.77 827.6,430.52 822.48,414.04 z"
       id="path59"
       style="opacity:1;fill:#5f68c3" />
    <path
       d="M 870.74,414.12 C 873.88,413.99 877.02,413.98 880.18,414.03 C 880.17,430.48 880.31,446.92 880.08,463.37 C 876.95,463.33 873.83,463.33 870.71,463.37 C 870.72,446.95 870.74,430.53 870.74,414.12 z"
       id="path61"
       style="opacity:1;fill:#5f68c3" />
    <path
       d="M 932.4,414.22 C 941.97,413.79 951.55,414.07 961.12,414.03 C 961.37,416.71 961.46,419.4 961.53,422.1 C 954.99,421.67 948.43,421.98 941.88,421.87 C 941.92,425.88 941.94,429.89 941.96,433.9 C 948.08,433.85 954.19,433.88 960.31,433.91 C 960.33,436.58 960.34,439.27 960.34,441.95 C 954.19,441.49 948.02,441.78 941.87,441.7 C 941.93,446.27 941.95,450.83 941.91,455.39 C 948.72,455.56 955.53,455.49 962.35,455.48 C 962.45,458.04 962.53,460.61 962.57,463.19 C 952.51,463.48 942.44,463.21 932.38,463.38 C 932.47,446.99 932.51,430.61 932.4,414.22 z"
       id="path63"
       style="opacity:1;fill:#5f68c3" />
  </g>
</svg>
