<svg width="12" height="12" viewBox="0 0 12 12" fill="none" xmlns="http://www.w3.org/2000/svg">
<path d="M0.752219 12C0.603937 12 0.458985 11.956 0.33569 11.8737C0.212395 11.7913 0.116293 11.6742 0.0595375 11.5372C0.00278172 11.4002 -0.01208 11.2495 0.0168315 11.104C0.045743 10.9586 0.117129 10.825 0.221964 10.7201L10.7188 0.219687C10.8593 0.0790552 11.05 3.12558e-05 11.2489 9.26978e-09C11.4477 -3.12372e-05 11.6385 0.0789328 11.7791 0.219521C11.9197 0.360109 11.9988 0.550805 11.9988 0.749657C11.9988 0.94851 11.9198 1.13923 11.7793 1.27986L1.28247 11.7803C1.21292 11.8501 1.13027 11.9054 1.03927 11.9431C0.948273 11.9808 0.850719 12.0001 0.752219 12Z" fill="#0088FF"/>
<path d="M11.2502 11.9988C11.1518 11.9989 11.0542 11.9796 10.9633 11.9419C10.8723 11.9042 10.7897 11.849 10.7201 11.7793L0.219687 1.28247C0.0790552 1.14188 3.12558e-05 0.951187 9.26978e-09 0.752334C-3.12372e-05 0.553482 0.0789327 0.362761 0.219521 0.222129C0.360109 0.0814966 0.550804 0.00247266 0.749657 0.00244142C0.94851 0.00241017 1.13923 0.0813741 1.27986 0.221962L11.7803 10.7187C11.8852 10.8236 11.9566 10.9572 11.9856 11.1026C12.0145 11.2481 11.9997 11.3989 11.943 11.5359C11.8862 11.6729 11.7901 11.79 11.6668 11.8724C11.5435 11.9548 11.3985 11.9988 11.2502 11.9988Z" fill="#0088FF"/>
</svg>
